<?xml version="1.0" encoding="UTF-8" standalone="no"?>
<!DOCTYPE svg PUBLIC "-//W3C//DTD SVG 1.1//EN"
 "http://www.w3.org/Graphics/SVG/1.1/DTD/svg11.dtd">
<!-- Generated by graphviz version 2.36.0 (20140111.2315)
 -->
<!-- Title: G Pages: 1 -->
<svg width="454pt" height="240pt"
 viewBox="0.00 0.00 454.00 240.00" xmlns="http://www.w3.org/2000/svg" xmlns:xlink="http://www.w3.org/1999/xlink">
<g id="graph0" class="graph" transform="scale(1 1) rotate(0) translate(4 236)">
<title>G</title>
<polygon fill="white" stroke="none" points="-4,4 -4,-236 450,-236 450,4 -4,4"/>
<g id="clust1" class="cluster"><title>cluster_Global</title>
<path fill="none" stroke="gray" d="M280,-8C280,-8 426,-8 426,-8 432,-8 438,-14 438,-20 438,-20 438,-212 438,-212 438,-218 432,-224 426,-224 426,-224 280,-224 280,-224 274,-224 268,-218 268,-212 268,-212 268,-20 268,-20 268,-14 274,-8 280,-8"/>
<text text-anchor="middle" x="353" y="-211.2" font-family="Times,serif" font-size="11.00" fill="gray">Global</text>
</g>
<g id="clust2" class="cluster"><title>cluster_\WebinoI18nSanitizeLib</title>
<path fill="none" stroke="gray" d="M288,-16C288,-16 418,-16 418,-16 424,-16 430,-22 430,-28 430,-28 430,-184 430,-184 430,-190 424,-196 418,-196 418,-196 288,-196 288,-196 282,-196 276,-190 276,-184 276,-184 276,-28 276,-28 276,-22 282,-16 288,-16"/>
<text text-anchor="middle" x="353" y="-183.2" font-family="Times,serif" font-size="11.00" fill="gray">WebinoI18nSanitizeLib</text>
</g>
<!-- \\WebinoI18nSanitizeLib\\Sanitize -->
<g id="node1" class="node"><title>\\WebinoI18nSanitizeLib\\Sanitize</title>
<polygon fill="none" stroke="black" points="388.5,-168 317.5,-168 317.5,-132 388.5,-132 388.5,-168"/>
<text text-anchor="middle" x="353" y="-147.2" font-family="Courier,monospace" font-size="11.00">Sanitize</text>
</g>
<!-- \\Zend\\Filter\\FilterInterface -->
<g id="node4" class="node"><title>\\Zend\\Filter\\FilterInterface</title>
<ellipse fill="none" stroke="black" cx="106" cy="-123" rx="105.082" ry="18"/>
<text text-anchor="middle" x="106" y="-119.3" font-family="Times,serif" font-size="14.00" fill="gray">\Zend\Filter\FilterInterface</text>
</g>
<!-- \\WebinoI18nSanitizeLib\\Sanitize&#45;&gt;\\Zend\\Filter\\FilterInterface -->
<g id="edge1" class="edge"><title>\\WebinoI18nSanitizeLib\\Sanitize&#45;&gt;\\Zend\\Filter\\FilterInterface</title>
<path fill="none" stroke="black" stroke-dasharray="1,5" d="M317.417,-146.189C288.173,-142.966 244.799,-138.186 205.018,-133.802"/>
<polygon fill="none" stroke="black" points="205.315,-130.314 194.992,-132.697 204.548,-137.271 205.315,-130.314"/>
</g>
<!-- \\WebinoI18nSanitizeLib\\Transliteration -->
<g id="node2" class="node"><title>\\WebinoI18nSanitizeLib\\Transliteration</title>
<polygon fill="none" stroke="black" points="412,-114 294,-114 294,-78 412,-78 412,-114"/>
<text text-anchor="middle" x="353" y="-93.2" font-family="Courier,monospace" font-size="11.00">Transliteration</text>
</g>
<!-- \\WebinoI18nSanitizeLib\\Transliteration&#45;&gt;\\Zend\\Filter\\FilterInterface -->
<g id="edge2" class="edge"><title>\\WebinoI18nSanitizeLib\\Transliteration&#45;&gt;\\Zend\\Filter\\FilterInterface</title>
<path fill="none" stroke="black" stroke-dasharray="1,5" d="M293.938,-102.399C267.368,-105.327 235.143,-108.878 204.985,-112.202"/>
<polygon fill="none" stroke="black" points="204.404,-108.744 194.848,-113.319 205.171,-115.702 204.404,-108.744"/>
</g>
<!-- \\WebinoI18nSanitizeLib\\SanitizeAwareTrait -->
<g id="node3" class="node"><title>\\WebinoI18nSanitizeLib\\SanitizeAwareTrait</title>
<polygon fill="none" stroke="black" points="422,-60 284,-60 284,-24 422,-24 422,-60"/>
<text text-anchor="middle" x="353" y="-39.2" font-family="Courier,monospace" font-size="11.00">SanitizeAwareTrait</text>
</g>
</g>
</svg>
